NotoSerif-CondensedSemiBoldItalic.ufo
<glyph name="Hbar" format="2">
  <advance width="668"/>
  <unicode hex="0126"/>
  <anchor x="277" y="0" name="bottom"/>
  <anchor x="429" y="714" name="top"/>
  <anchor x="359" y="357" name="center"/>
  <anchor x="743" y="714" name="topright"/>
  <outline>
    <contour>
      <point x="76" y="500" type="line"/>
      <point x="721" y="500" type="line"/>
      <point x="732" y="550" type="line"/>
      <point x="86" y="550" type="line"/>
    </contour>
    <component base="H"/>
  </outline>
</glyph>
<glyph name="uni019A" format="2">
  <advance width="295"/>
  <unicode hex="019A"/>
  <anchor x="90" y="0" name="bottom"/>
  <anchor x="252" y="760" name="top"/>
  <anchor x="204" y="268" name="center"/>
  <anchor x="380" y="760" name="topright"/>
  <outline>
    <contour>
      <point x="26" y="360" type="line"/>
      <point x="305" y="360" type="line"/>
      <point x="318" y="414" type="line"/>
      <point x="39" y="414" type="line"/>
    </contour>
    <component base="l"/>
  </outline>
</glyph>
<glyph name="uni019B" format="2">
  <advance width="471"/>
  <unicode hex="019B"/>
  <anchor x="179" y="0" name="bottom"/>
  <anchor x="343" y="770" name="top"/>
  <outline>
    <contour>
      <point x="176" y="521" type="line"/>
      <point x="453" y="682" type="line"/>
      <point x="465" y="748" type="line"/>
      <point x="187" y="585" type="line"/>
    </contour>
    <component base="lambda"/>
  </outline>
</glyph>
<glyph name="uni02A2" format="2">
  <advance width="454"/>
  <unicode hex="02A2"/>
  <anchor x="170" y="0" name="bottom"/>
  <anchor x="334" y="768" name="top"/>
  <outline>
    <contour>
      <point x="73" y="181" type="line"/>
      <point x="361" y="181" type="line"/>
      <point x="373" y="236" type="line"/>
      <point x="85" y="236" type="line"/>
    </contour>
    <component base="uni0295"/>
  </outline>
</glyph>
<glyph name="uni03FC" format="2">
  <advance width="501"/>
  <unicode hex="03FC"/>
  <anchor x="146" y="-240" name="bottom"/>
  <anchor x="314" y="536" name="top"/>
  <outline>
    <contour>
      <point x="-88" y="-136" type="line"/>
      <point x="269" y="-136" type="line"/>
      <point x="281" y="-81" type="line"/>
      <point x="-76" y="-81" type="line"/>
    </contour>
    <component base="rho"/>
  </outline>
</glyph>
<glyph name="uni04B0" format="2">
  <advance width="571"/>
  <unicode hex="04B0"/>
  <anchor x="229" y="0" name="bottom"/>
  <anchor x="381" y="714" name="top"/>
  <anchor x="646" y="714" name="topright"/>
  <outline>
    <contour>
      <point x="104" y="195" type="line"/>
      <point x="473" y="195" type="line"/>
      <point x="484" y="247" type="line"/>
      <point x="116" y="247" type="line"/>
    </contour>
    <component base="Y"/>
  </outline>
</glyph>
<glyph name="uni04B9" format="2">
  <advance width="535"/>
  <unicode hex="04B9"/>
  <anchor x="211" y="0" name="bottom"/>
  <anchor x="325" y="536" name="top"/>
  <outline>
    <contour>
      <point x="207" y="103" type="line"/>
      <point x="250" y="103" type="line"/>
      <point x="304" y="363" type="line"/>
      <point x="260" y="363" type="line"/>
    </contour>
    <component base="afii10089"/>
  </outline>
</glyph>
<glyph name="uni04FE" format="2">
  <advance width="604"/>
  <unicode hex="04FE"/>
  <anchor x="246" y="0" name="bottom"/>
  <anchor x="398" y="714" name="top"/>
  <anchor x="679" y="714" name="topright"/>
  <outline>
    <contour>
      <point x="118" y="347" type="line"/>
      <point x="564" y="347" type="line"/>
      <point x="576" y="400" type="line"/>
      <point x="129" y="400" type="line"/>
    </contour>
    <component base="X"/>
  </outline>
</glyph>
<glyph name="uni1AB9" format="2">
  <unicode hex="1AB9"/>
  <anchor x="-335" y="0" name="_bottom"/>
  <anchor x="-354" y="-240" name="bottom"/>
  <outline>
    <contour>
      <point x="-374" y="-240" type="line"/>
      <point x="-281" y="26" type="line"/>
      <point x="-339" y="46" type="line"/>
      <point x="-431" y="-219" type="line"/>
    </contour>
  </outline>
</glyph>
<glyph name="uni1FEF" format="2">
  <advance width="520"/>
  <unicode hex="1FEF"/>
  <anchor x="309" y="536" name="_top"/>
  <anchor x="348" y="792" name="top"/>
  <outline>
    <contour>
      <point x="357" y="627" type="curve"/>
      <point x="413" y="627" type="line"/>
      <point x="416" y="641" type="line"/>
      <point x="402" y="686"/>
      <point x="391" y="757"/>
      <point x="389" y="792" type="curve"/>
      <point x="278" y="792" type="line"/>
      <point x="275" y="781" type="line"/>
      <point x="292" y="735"/>
      <point x="317" y="678"/>
    </contour>
  </outline>
</glyph>
<glyph name="uni1FFD" format="2">
  <advance width="520"/>
  <unicode hex="1FFD"/>
  <anchor x="308" y="536" name="_top"/>
  <anchor x="345" y="786" name="top"/>
  <outline>
    <contour>
      <point x="253" y="620" type="line"/>
      <point x="318" y="620" type="line"/>
      <point x="350" y="660"/>
      <point x="403" y="726"/>
      <point x="431" y="775" type="curve"/>
      <point x="433" y="786" type="line"/>
      <point x="314" y="786" type="line"/>
      <point x="296" y="737"/>
      <point x="276" y="677"/>
      <point x="256" y="634" type="curve"/>
    </contour>
  </outline>
</glyph>
<glyph name="parenleftsuperior" format="2">
  <advance width="202"/>
  <unicode hex="207D"/>
  <outline>
    <contour>
      <point x="165" y="197" type="curve"/>
      <point x="175" y="241" type="line"/>
      <point x="138" y="277"/>
      <point x="124" y="343"/>
      <point x="124" y="415" type="curve" smooth="yes"/>
      <point x="124" y="546"/>
      <point x="171" y="674"/>
      <point x="282" y="747" type="curve"/>
      <point x="291" y="789" type="line"/>
      <point x="134" y="751"/>
      <point x="40" y="602"/>
      <point x="40" y="425" type="curve" smooth="yes"/>
      <point x="40" y="319"/>
      <point x="82" y="234"/>
    </contour>
  </outline>
</glyph>
<glyph name="uni20B4" format="2">
  <advance width="508"/>
  <unicode hex="20B4"/>
  <anchor x="200" y="0" name="bottom"/>
  <anchor x="352" y="714" name="top"/>
  <outline>
    <contour>
      <point x="19" y="270" type="line"/>
      <point x="506" y="270" type="line"/>
      <point x="518" y="327" type="line"/>
      <point x="31" y="327" type="line"/>
    </contour>
    <contour>
      <point x="45" y="403" type="line"/>
      <point x="532" y="403" type="line"/>
      <point x="544" y="459" type="line"/>
      <point x="57" y="459" type="line"/>
    </contour>
    <component base="uni01A7" xOffset="16"/>
  </outline>
</glyph>
<glyph name="uni2C61" format="2">
  <advance width="294"/>
  <unicode hex="2C61"/>
  <anchor x="90" y="0" name="bottom"/>
  <anchor x="252" y="760" name="top"/>
  <anchor x="204" y="268" name="center"/>
  <anchor x="380" y="760" name="topright"/>
  <outline>
    <contour>
      <point x="3" y="291" type="line"/>
      <point x="296" y="291" type="line"/>
      <point x="308" y="347" type="line"/>
      <point x="214" y="347" type="line"/>
      <point x="226" y="408" type="line"/>
      <point x="320" y="408" type="line"/>
      <point x="332" y="464" type="line"/>
      <point x="40" y="464" type="line"/>
      <point x="28" y="408" type="line"/>
      <point x="108" y="408" type="line"/>
      <point x="96" y="347" type="line"/>
      <point x="16" y="346.99" type="line"/>
    </contour>
    <component base="l"/>
  </outline>
</glyph>
<glyph name="twoemdash" format="2">
  <advance width="1651"/>
  <unicode hex="2E3A"/>
  <outline>
    <contour>
      <point x="16" y="235" type="line"/>
      <point x="1641" y="235" type="line"/>
      <point x="1655" y="302" type="line"/>
      <point x="30" y="302" type="line"/>
    </contour>
  </outline>
</glyph>
<glyph name="uniA671" format="2">
  <unicode hex="A671"/>
  <outline>
    <contour>
      <point x="-212" y="579" type="line"/>
      <point x="-161" y="579" type="line"/>
      <point x="-161" y="679" type="line"/>
      <point x="189" y="679" type="line"/>
      <point x="189" y="579" type="line"/>
      <point x="240" y="579" type="line"/>
      <point x="240" y="750" type="line"/>
      <point x="-212" y="750" type="line"/>
    </contour>
    <contour>
      <point x="-212" y="-214" type="line"/>
      <point x="240" y="-214" type="line"/>
      <point x="240" y="-43" type="line"/>
      <point x="189" y="-43" type="line"/>
      <point x="189" y="-143" type="line"/>
      <point x="-161" y="-143" type="line"/>
      <point x="-161" y="-43" type="line"/>
      <point x="-212" y="-43" type="line"/>
    </contour>
  </outline>
</glyph>
<glyph name="uniA74A" format="2">
  <advance width="649"/>
  <unicode hex="A74A"/>
  <anchor x="268" y="0" name="bottom"/>
  <anchor x="363" y="357" name="center"/>
  <anchor x="420" y="714" name="top"/>
  <anchor x="724" y="714" name="topright"/>
  <outline>
    <contour>
      <point x="22" y="342" type="line"/>
      <point x="683" y="342" type="line"/>
      <point x="697" y="403" type="line"/>
      <point x="34" y="403" type="line"/>
    </contour>
    <component base="O"/>
  </outline>
</glyph>
<glyph name="uniA74B" format="2">
  <advance width="507"/>
  <unicode hex="A74B"/>
  <anchor x="197" y="0" name="bottom"/>
  <anchor x="311" y="268" name="center"/>
  <anchor x="311" y="536" name="top"/>
  <anchor x="544" y="536" name="topright"/>
  <outline>
    <contour>
      <point x="-16" y="244" type="line"/>
      <point x="541" y="244" type="line"/>
      <point x="552" y="297" type="line"/>
      <point x="-6" y="297" type="line"/>
    </contour>
    <component base="o"/>
  </outline>
</glyph>
<glyph name="uniA791" format="2">
  <advance width="573"/>
  <unicode hex="A791"/>
  <anchor x="225" y="0" name="bottom"/>
  <anchor x="339" y="536" name="top"/>
  <anchor x="600" y="536" name="topright"/>
  <outline>
    <contour>
      <point x="387" y="-228" type="curve" smooth="yes"/>
      <point x="482" y="-228"/>
      <point x="507" y="-149"/>
      <point x="545" y="55" type="curve"/>
      <point x="526" y="88" type="line"/>
      <point x="477" y="5" type="line"/>
      <point x="441" y="-104"/>
      <point x="411" y="-156"/>
      <point x="366" y="-156" type="curve" smooth="yes"/>
      <point x="335" y="-156"/>
      <point x="313" y="-151"/>
      <point x="294" y="-144" type="curve"/>
      <point x="273" y="-194" type="line"/>
      <point x="310" y="-213"/>
      <point x="341" y="-228"/>
    </contour>
    <component base="n"/>
  </outline>
</glyph>
<glyph name="uniA793" format="2">
  <advance width="434"/>
  <unicode hex="A793"/>
  <anchor x="190" y="0" name="bottom"/>
  <anchor x="311" y="536" name="top"/>
  <anchor x="471" y="536" name="topright"/>
  <outline>
    <contour>
      <point x="-4" y="247" type="line"/>
      <point x="275" y="247" type="line"/>
      <point x="288" y="304" type="line"/>
      <point x="9" y="304" type="line"/>
    </contour>
    <component base="c"/>
  </outline>
</glyph>
<glyph name="uniA7A0" format="2">
  <advance width="658"/>
  <unicode hex="A7A0"/>
  <anchor x="293" y="0" name="bottom"/>
  <anchor x="452" y="714" name="top"/>
  <anchor x="728" y="714" name="topright"/>
  <outline>
    <contour>
      <point x="-3" y="221" type="line"/>
      <point x="642" y="382" type="line"/>
      <point x="655" y="438" type="line"/>
      <point x="9" y="277" type="line"/>
    </contour>
    <component base="G"/>
  </outline>
</glyph>
<glyph name="uniA7A2" format="2">
  <advance width="606"/>
  <unicode hex="A7A2"/>
  <anchor x="247" y="0" name="bottom"/>
  <anchor x="399" y="714" name="top"/>
  <anchor x="681" y="714" name="topright"/>
  <outline>
    <contour>
      <point x="-3" y="112" type="line"/>
      <point x="587" y="249" type="line"/>
      <point x="599" y="305" type="line"/>
      <point x="10" y="168" type="line"/>
    </contour>
    <component base="K"/>
  </outline>
</glyph>
<glyph name="uniAB3F" format="2">
  <advance width="451"/>
  <unicode hex="AB3F"/>
  <anchor x="276" y="536" name="bottom"/>
  <anchor x="155" y="0" name="top"/>
  <anchor x="-5" y="0" name="topright"/>
  <outline>
    <contour>
      <point x="28" y="-66" type="line"/>
      <point x="83" y="-66" type="line"/>
      <point x="373" y="586" type="line"/>
      <point x="317" y="586" type="line"/>
    </contour>
    <component base="c" xScale="-1" yScale="-1" xOffset="466" yOffset="536"/>
  </outline>
</glyph>
<glyph name="uniFE28" format="2">
  <unicode hex="FE28"/>
  <anchor x="-57" y="0" name="_bottom"/>
  <outline>
    <contour>
      <point x="-102" y="-211" type="line"/>
      <point x="51" y="-211"/>
      <point x="166" y="-158"/>
      <point x="257" y="-26" type="curve"/>
      <point x="206" y="-26" type="line"/>
      <point x="145" y="-105"/>
      <point x="46" y="-143"/>
      <point x="-87" y="-143" type="curve"/>
    </contour>
  </outline>
</glyph>
<glyph name="eth.sc" format="2">
  <advance width="543"/>
  <anchor x="214" y="0" name="bottom"/>
  <anchor x="336" y="571" name="top"/>
  <anchor x="272" y="286" name="center"/>
  <anchor x="584" y="571" name="topright"/>
  <outline>
    <contour>
      <point x="55" y="273" type="line"/>
      <point x="304" y="273" type="line"/>
      <point x="317" y="325" type="line"/>
      <point x="66" y="325" type="line"/>
    </contour>
    <component base="d.sc"/>
  </outline>
</glyph>
<glyph name="hbar.sc" format="2">
  <advance width="570"/>
  <anchor x="252" y="0" name="bottom"/>
  <anchor x="376" y="571" name="top"/>
  <anchor x="310" y="286" name="center"/>
  <anchor x="650" y="571" name="topright"/>
  <outline>
    <contour>
      <point x="62" y="398" type="line"/>
      <point x="618" y="398" type="line"/>
      <point x="628" y="442" type="line"/>
      <point x="72" y="442" type="line"/>
    </contour>
    <component base="h.sc"/>
  </outline>
</glyph>
<glyph name="tbar.sc" format="2">
  <advance width="470"/>
  <anchor x="194" y="0" name="bottom"/>
  <anchor x="315" y="571" name="top"/>
  <anchor x="251" y="286" name="center"/>
  <anchor x="548" y="571" name="topright"/>
  <outline>
    <contour>
      <point x="90" y="262" type="line"/>
      <point x="426" y="262" type="line"/>
      <point x="436" y="304" type="line"/>
      <point x="99" y="304" type="line"/>
    </contour>
    <component base="t.sc"/>
  </outline>
</glyph>
